<svg xmlns="http://www.w3.org/2000/svg" viewBox="0 0 900 900" role="img" aria-labelledby="title desc">
  <title id="title">Premium cricket bat</title>
  <desc id="desc">Illustration of an English willow cricket bat on a green pitch background.</desc>
  <defs>
    <linearGradient id="bg" x1="0" y1="0" x2="1" y2="1"><stop stop-color="#10261b"/><stop offset="1" stop-color="#e8ddbd"/></linearGradient>
    <linearGradient id="willow" x1="0" y1="0" x2="1" y2="1"><stop stop-color="#f8e7b4"/><stop offset=".55" stop-color="#d6a849"/><stop offset="1" stop-color="#8f5f1e"/></linearGradient>
    <filter id="shadow" x="-20%" y="-20%" width="140%" height="140%"><feDropShadow dx="0" dy="24" stdDeviation="22" flood-color="#000" flood-opacity=".3"/></filter>
  </defs>
  <rect width="900" height="900" fill="url(#bg)"/>
  <path d="M0 705 C220 610 420 740 900 570 L900 900 L0 900Z" fill="#0f3c27" opacity=".7"/>
  <g opacity=".24" stroke="#fff" stroke-width="3"><path d="M-70 250 L960 70"/><path d="M-60 670 L940 430"/><path d="M100 860 L835 135"/></g>
  <g filter="url(#shadow)" transform="rotate(-28 450 450)">
    <rect x="389" y="150" width="122" height="470" rx="55" fill="url(#willow)"/>
    <path d="M405 180 C444 210 461 520 423 590" stroke="#6f4317" stroke-width="6" opacity=".45" fill="none"/>
    <path d="M468 170 C435 260 490 445 468 600" stroke="#fff0c0" stroke-width="5" opacity=".38" fill="none"/>
    <rect x="413" y="594" width="74" height="160" rx="24" fill="#151515"/>
    <rect x="410" y="630" width="80" height="17" rx="8" fill="#c99416"/>
    <rect x="410" y="674" width="80" height="17" rx="8" fill="#c99416"/>
  </g>
  <circle cx="690" cy="210" r="46" fill="#b3262e" opacity=".88"/>
</svg>
