<svg xmlns="http://www.w3.org/2000/svg" viewBox="0 0 900 900" role="img" aria-labelledby="title desc">
  <title id="title">Batting gloves</title>
  <desc id="desc">Illustration of padded cricket batting gloves.</desc>
  <defs>
    <linearGradient id="bg" x1="0" y1="0" x2="1" y2="1"><stop stop-color="#11140f"/><stop offset="1" stop-color="#d8c27b"/></linearGradient>
    <filter id="shadow"><feDropShadow dx="0" dy="24" stdDeviation="18" flood-opacity=".32"/></filter>
  </defs>
  <rect width="900" height="900" fill="url(#bg)"/>
  <g opacity=".22" stroke="#fff" stroke-width="3"><path d="M110 150 L760 730"/><path d="M60 610 L840 350"/></g>
  <g filter="url(#shadow)" transform="rotate(-12 450 450)">
    <rect x="240" y="245" width="160" height="335" rx="58" fill="#f7f2df"/>
    <rect x="500" y="250" width="160" height="335" rx="58" fill="#f7f2df"/>
    <g fill="#163b28"><rect x="258" y="280" width="34" height="210" rx="16"/><rect x="305" y="260" width="34" height="235" rx="16"/><rect x="352" y="286" width="34" height="205" rx="16"/><rect x="518" y="286" width="34" height="205" rx="16"/><rect x="565" y="260" width="34" height="235" rx="16"/><rect x="612" y="280" width="34" height="210" rx="16"/></g>
    <rect x="250" y="535" width="140" height="70" rx="24" fill="#b98a12"/><rect x="510" y="535" width="140" height="70" rx="24" fill="#b98a12"/>
    <path d="M395 405 C450 420 465 500 432 565" stroke="#f7f2df" stroke-width="58" stroke-linecap="round" fill="none"/>
  </g>
</svg>
